<svg width="117" height="117" xmlns="http://www.w3.org/2000/svg">
 <title/>
 <desc/>

 <g>
  <title>background</title>
  <rect fill="none" id="canvas_background" height="402" width="582" y="-1" x="-1"/>
 </g>
 <g>
  <title>Layer 1</title>
  <g id="Page-1" fill-rule="evenodd" fill="none">
   <g id="exit" fill-rule="nonzero">
    <path id="Shape" fill="#17AB13" d="m82.599998,88.400002c0.800003,0.799995 1.800003,1.199997 2.900002,1.199997c1.099998,0 2.099998,-0.400002 2.900002,-1.199997l27,-27c0.199997,-0.200001 0.400002,-0.400002 0.5,-0.600002c0,0 0.099998,-0.099998 0.099998,-0.200001c0.099998,-0.199997 0.199997,-0.399998 0.300003,-0.5c0,-0.099998 0,-0.199997 0.099998,-0.199997c0.099998,-0.200001 0.099998,-0.300003 0.199997,-0.5c0.099998,-0.300003 0.099998,-0.5 0.099998,-0.800003c0,-0.299999 0,-0.5 -0.099998,-0.799999c0,-0.200001 -0.099998,-0.399998 -0.199997,-0.5c0,-0.099998 0,-0.200001 -0.099998,-0.200001c-0.100006,-0.199997 -0.200005,-0.399998 -0.300003,-0.599998c0,0 0,-0.099998 -0.099998,-0.099998c-0.099998,-0.200001 -0.300003,-0.400002 -0.5,-0.600002l-27,-27c-1.599998,-1.599998 -4.200005,-1.599998 -5.800003,0c-1.599998,1.6 -1.599998,4.200001 0,5.799999l20,20l-71.099998,0c-2.299999,0 -4.1,1.800003 -4.1,4.100002c0,2.299999 1.800001,4.099998 4.1,4.099998l71.099998,0l-20,20.000004c-1.599998,1.399994 -1.599998,4 0,5.599998z"/>
    <path id="Shape" fill="#4A4A4A" d="m4.5,116.5l54,0c2.299999,0 4.099998,-1.800003 4.099998,-4.099998l0,-40.300003c0,-2.299995 -1.799999,-4.099998 -4.099998,-4.099998c-2.299999,0 -4.099998,1.800003 -4.099998,4.099998l0,36.200005l-45.800001,0l0,-99.700003l45.800001,0l0,36.199999c0,2.299999 1.799999,4.100002 4.099998,4.100002c2.299999,0 4.099998,-1.800003 4.099998,-4.100002l0,-40.299999c0,-2.3 -1.799999,-4.1 -4.099998,-4.1l-54,0c-2.3,0 -4.1,1.8 -4.1,4.1l0,107.900002c0.1,2.299995 1.9,4.099998 4.1,4.099998z"/>
   </g>
  </g>
 </g>
</svg>