<?xml version="1.0" ?><svg height="36" viewBox="0 0 12 36" width="12" xmlns="http://www.w3.org/2000/svg"><g fill="#4A4A4A" fill-rule="evenodd" transform="translate(-18 -6)"><path d="M27,26.0405127 L21,29.5046143 L21,27.4918975 L27,24.0277959 L27,26.0405127 Z M27,28.3499138 L27,34.7070475 L24.4667019,41.6706645 C24.3722969,41.9301684 24.0853969,42.0640075 23.825893,41.9696024 C23.6869287,41.9190485 23.5774696,41.8095755 23.5269334,41.6706048 L21,34.7217367 L21,31.8140154 L27,28.3499138 Z M27,21.7183948 L21,25.1824965 L21,23.1697796 L27,19.705678 L27,21.7183948 Z M27,17.396277 L21,20.8603786 L21,14.2819426 C21,13.8361832 21.0464128,13.6745401 21.1335664,13.5115771 C21.2207199,13.3486142 21.3486142,13.2207199 21.5115771,13.1335664 C21.6745401,13.0464128 21.8361832,13 22.2819426,13 L25.7180574,13 C26.1638168,13 26.3254599,13.0464128 26.4884229,13.1335664 C26.6513858,13.2207199 26.7792801,13.3486142 26.8664336,13.5115771 C26.9535872,13.6745401 27,13.8361832 27,14.2819426 L27,17.396277 Z"/><rect height="5" rx="1" width="12" x="18" y="6"/></g></svg>
